<mxfile host="app.diagrams.net" modified="2024-04-15T15:49:11.481Z" agent="Mozilla/5.0 (Windows NT 10.0; Win64; x64) AppleWebKit/537.36 (KHTML, like Gecko) Chrome/123.0.0.0 Safari/537.36" version="24.2.5" etag="J2x-xr-yhRaiK2Sqd1d_" type="github">
  <diagram name="Page-1" id="Cykf2mu9N1lQySB8u7c6">
    <mxGraphModel>
      <root>
        <mxCell id="0" />
        <mxCell id="1" parent="0" />
      </root>
    </mxGraphModel>
  </diagram>
</mxfile>
